<?xml version="1.0" encoding="UTF-8"?>
<svg id="Layer_1" xmlns="http://www.w3.org/2000/svg" version="1.1" viewBox="0 0 778 654">
  <!-- Generator: Adobe Illustrator 29.1.0, SVG Export Plug-In . SVG Version: 2.1.0 Build 142)  -->
  <defs>
    <style>
      .st0 {
        fill: #036737;
      }

      .st1 {
        fill: #fff;
      }

      .st2 {
        fill: #fd792c;
      }
    </style>
  </defs>
  <path class="st1" d="M92.8,527.6c1.8,3.2,2.6,6.7,4,10.1-2.6,0-5.1,0-7.7,0,1.2-3.4,2.4-6.8,3.7-10.1Z"/>
  <g>
    <path class="st0" d="M64.4,0h648.3c9.3,1.8,18.8,4.2,26.8,9.5,6.8,4.6,13.7,9.4,18.9,16,5.9,7.8,12,15.9,14.3,25.5,2,8.2,4.5,16.5,4.5,25,0,164.7,0,329.4,0,494.1,0,6.9.4,14-1.1,20.8-2.2,9.6-3.8,19.7-9.2,28.2-4.7,7.1-9.5,14.4-16.2,19.9-7.9,6.3-16.5,12.4-26.4,15.1H53.3c-10.3-2.3-18.8-8.9-27-15.2-5.3-4.1-9.1-9.8-13-15.2-4.2-5.9-7.4-12.5-9.2-19.5-1.7-6.9-3.5-13.8-4.1-20.9V72.6c1-7.6,2.9-15.1,4.8-22.5,2.6-9.4,8.5-17.3,14.4-25,5.9-7.4,14-12.5,21.9-17.6-.2-.7-.4-1.4-.7-2.1l.7-.4c.5.3,1.4.8,1.9,1.1,7-2.5,14.1-4.8,21.4-6.1ZM66.4,22.8c-10.9,2.3-20.9,8.1-28.5,16.2-9.5,10.1-14.9,24.1-14.6,38,0,168,0,336,0,504-.2,21.4,13.7,41.9,33.5,49.9,10.1,4.4,21.3,4.5,32.1,4.1,26,.3,52,0,78,.1,176.3,0,352.7,0,529,0,11.4.4,23-2.3,32.6-8.5,16.7-10.3,26.6-30.1,25.2-49.6,0-167.7,0-335.3,0-503-.2-23.9-18.6-45.7-41.8-50.9-5.6-1.3-11.4-1.6-17.1-1.5-205.3,0-410.7,0-616,0-4.2,0-8.4.4-12.5,1.2Z"/>
    <path class="st0" d="M148.9,103.8c25.3-2.9,50.5,3.1,74.4,10.9,0,21.7-.3,43.4-.6,65.1-14.1-7.9-29.6-13.5-45.7-15.1-8.8-.4-18.4.3-25.5,5.9-4.6,3.6-5.8,10-4.4,15.4,1.9,7.6,6.8,14,11.7,20,12.5,14.8,27.2,27.6,39.8,42.4,13.2,14.9,25.1,32.1,28.7,52.1,2.4,19.8-1.4,40.9-13.3,57.1-10.2,14.2-26,23.5-42.7,28-13,3.6-26.7,4.6-40.2,3.7-19-1.7-37.7-6.1-56.1-11.2-.1-21.7-.2-43.4-.3-65.1,14.3,6.2,29.1,11.7,44.5,14.2,9.6,1.4,19.8,1.2,29-2.1,6.1-2.1,12-7.3,11.7-14.2-.3-9.8-6.8-17.7-12.7-24.9-14.7-16.9-31.7-31.9-45.6-49.5-10.9-13.7-20.3-29.4-22.6-47.1-2.2-21.9,3.7-45.3,19-61.6,13.1-14.3,32.1-21.8,51.1-24.1Z"/>
    <path class="st0" d="M253.8,110.4c4.7-1,9.5-.2,14.2-.3,26,0,52-.3,78.1.1,20.7.8,41.8,8.2,56.3,23.4,14.6,15.1,22.1,35.8,24.4,56.4,2.4,19.5.8,40.2-8.9,57.6-7.7,14.2-20.7,25.3-35.6,31.3,17.7,34.7,36.1,69,53.9,103.6-23.7,0-47.5,0-71.2,0-14.2-31.9-28.3-63.9-42.5-95.8,0,31.9-.3,63.8-.2,95.6-22.7.3-45.4,0-68.1.2-.2-83.9,0-167.8,0-251.7.1-6.9,0-13.7-.3-20.6ZM322.4,152.2c.2,16.1.1,32.1,0,48.2,2.5.7,5.6,1.7,6.5,4.5,2.2,4.5-1.6,9.9-6.4,9.9,0,6.9,0,13.8,0,20.6,5.9-.1,11.7-.1,17.6,0,4-12.6,15.1-20.8,25.7-27.6-.4-1.1-1.4-1.8-2.1-2.6-15.4-15.3-28.6-33.2-36.5-53.6-1.6.2-3.2.4-4.9.6ZM322.5,239.3c0,2.8,0,5.6,0,8.4,7.5,0,14.9,0,22.4,0,0-2.8,0-5.6-.1-8.4-7.4,0-14.8,0-22.2,0Z"/>
    <path class="st0" d="M492.7,109.6c22.7,0,45.4,0,68.2,0-.1,56.5,0,112.9,0,169.4-.2,18,1.1,36.5-4.1,54-4.5,16.6-14.4,32.1-28.9,41.8-12.9,8.9-28.4,13-43.9,14.2-13.3,1.4-27.3-.7-38.8-7.8.2-20.7.3-41.4.3-62,9.3,5.9,20.4,9.2,31.5,8.4,4.4-.2,8.9-2.4,11.2-6.2,2.3-3.6,3.3-7.8,3.9-12,1.5-11.7.9-23.6,1-35.4-.5-54.8-.3-109.6-.5-164.4Z"/>
    <path class="st0" d="M628.8,109.7c22.8,0,45.6,0,68.3,0v172.4c.1,18.1.6,36.6-5.1,54-5.1,16.5-15.7,31.4-30.6,40.4-14.4,9-31.6,12.5-48.4,12.8-11,.3-22.2-2.4-31.6-8.1,0-20.7.3-41.4.2-62,9.4,5.7,20.4,9.2,31.5,8.4,2.7,0,5.1-1.2,7.5-2.2,7.9-6.2,8-17.2,8.6-26.4.1-63.1-.2-126.2-.4-189.3Z"/>
    <path class="st0" d="M117.1,523.1c6.5-9.4,21.9-10.5,29.8-2.2-2,2-3.8,4.1-5.9,6-3-1.7-6.3-4.2-10-2.7-7.4,1.7-9.6,12.3-4.5,17.5,1.9,2,4.8,3.3,7.6,2.9,2.8,0,4.8-2.1,7.1-3.3,2.1,1.8,4.1,3.7,5.9,5.8-7.6,9.3-24.3,7.8-30.4-2.4-4-6.5-3.9-15.3.5-21.5Z"/>
    <path class="st0" d="M152.6,523.4c6.4-9.8,22-10.8,30.1-2.6-2.1,2.1-4.1,4.1-6.2,6.2-2.7-2.3-6.4-4.1-10.1-2.9-4.9,1.4-7.7,6.9-6.9,11.8.5,4.6,4.5,9,9.4,8.7,3.1.3,5.6-1.8,7.9-3.6,1.9,2,4.1,3.8,5.8,5.9-7.6,9.7-24.9,7.8-30.7-2.9-3.6-6.2-3.5-14.6.5-20.6Z"/>
    <path class="st0" d="M199.6,515.9c6.8-1.4,14.6-.1,19.6,5,7.2,7.4,6.7,20.6-.9,27.5-7.9,7-21.2,6.5-28.4-1.3-5.4-6.3-6.1-16-1.9-23.1,2.5-4.2,6.9-7,11.6-8ZM202.6,523.9c-9.2,1.9-10.1,16.7-1.5,20,6.1,2.8,13.4-2.4,13.4-9,.9-6.4-5.3-12.9-11.8-11Z"/>
    <path class="st0" d="M410,516.7c7.2-2.7,15.9-1.5,21.9,3.4-1.8,2.3-3.7,4.6-5.8,6.7-3.2-2.7-7.7-4.2-11.7-2.6-7.4,2.9-8.4,14.7-1.8,19.1,3.2,2.1,7.2,1.4,10.8,1,0-2,0-4,.1-6-2.3,0-4.5,0-6.8,0,0-2.5,0-5.1,0-7.6,5.1,0,10.1-.1,15.2,0-.3,6.4.8,12.9-.1,19.3-7.8,3.9-17.9,4.7-25.5-.3-7-4.5-9.4-14-7-21.6,1.6-5.2,5.6-9.6,10.7-11.4Z"/>
    <path class="st0" d="M457.3,518.4c6.3-4.6,16.2-3.9,21.8,1.6-1.6,2.1-3.4,4.1-5.4,5.9-2.8-1.1-5.4-3.6-8.7-2.4-2.3.3-2.5,2.7-2.4,4.5,4.2,2.2,9.1,2.8,12.9,5.7,5.6,4.4,3.9,14.4-2.3,17.5-7,3.8-16.3,2.1-21.9-3.4,2-2,4-4,6-6.1,2.9,2.2,6.8,5.1,10.5,3,2-.7,2.4-3.9.6-5-3.3-2-7.3-2.4-10.6-4.5-6.1-3.3-5.9-13-.5-16.8Z"/>
    <path class="st0" d="M607.4,522.4c6.8-8.8,21.7-9.6,29.4-1.5-2.1,2-4,4.1-6.2,5.9-2.8-2-6.1-3.9-9.7-2.8-8.1,1.8-9.9,14-3.4,18.7,4,3.1,10,2.2,13.1-1.7,2.2,2,4.3,4,6.5,6.1-7,7.9-20.4,8.2-28,.9-6.7-6.6-7.5-18.2-1.7-25.6Z"/>
    <path class="st0" d="M676.5,518.4c6.5-4.8,16.1-3.6,22.2,1.5-2,2.1-3.9,4.1-5.9,6.2-3-2.8-8.9-4.8-11.3-.3.3.6.9,1.9,1.2,2.5,4.1,1.9,8.9,2.6,12.4,5.6,4,3.5,3.8,9.9.9,14-2.9,4-8.2,5.4-13,5.2-4.5-.6-9.6-1.8-12.2-5.8,2-1.9,3.9-3.9,5.8-5.8,2.7,2.4,6.6,5,10.3,3.3,2.3-.6,2.6-4.1.7-5.2-4.1-2.4-9.4-2.6-12.8-6.3-3.6-4.3-2.8-11.6,1.8-14.9Z"/>
    <path class="st0" d="M88.7,516.3c2.8,0,5.7,0,8.5-.1,3.5,7.1,6.2,14.6,9.3,22,1.8,4.7,4.2,9.2,5.5,14.2-3.3,0-6.6,0-9.9-.1-.8-2.3-1.7-4.6-2.6-6.8-4.4,0-8.9-.1-13.3.2-.7,2.2-1.4,4.4-2.1,6.7-3.3.1-6.6.1-10,.1,4.2-12.2,9.9-23.9,14.6-35.9ZM92.8,527.6c-1.3,3.3-2.5,6.7-3.7,10.1,2.6,0,5.1,0,7.7,0-1.3-3.4-2.2-6.9-4-10.1Z"/>
    <path class="st0" d="M230.6,516.4c3.1,0,6.1,0,9.2,0,0,6.2,0,12.4,0,18.7,0,2.3,0,4.8,1,6.9,2.1,3.7,8.3,4,10.4.2,1.2-1.8,1.1-4,1.1-6.1,0-6.6,0-13.1,0-19.7,3.1,0,6.2,0,9.2,0,0,7.9,0,15.8,0,23.8-.2,6.6-5.8,12.1-12.3,12.8-7.9,1.8-17.4-3.2-18.2-11.8-.6-8.2-.1-16.5-.3-24.8Z"/>
    <path class="st0" d="M269.6,516.2c3.4,0,6.8,0,10.2,0,4.5,7.2,8.8,14.6,13.5,21.8.2-7.2,0-14.5,0-21.8,3,0,6.1,0,9.1.2-.1,11.9,0,23.8,0,35.8-3.4,0-6.9,0-10.3,0-4.4-7.5-9.2-14.7-13.5-22.2-.2,7.4,0,14.8,0,22.2-3,0-6,0-9,0,0-12,0-24,0-36Z"/>
    <path class="st0" d="M307.2,516.3c9.7,0,19.3,0,29,0,0,2.7,0,5.3,0,8-3.3,0-6.6,0-9.9,0,0,9.3,0,18.7,0,28-3,0-6.1,0-9.1,0-.2-9.3,0-18.7-.2-28-3.2,0-6.5,0-9.7,0-.2-2.7-.2-5.4-.2-8.1Z"/>
    <path class="st0" d="M341.3,516.3c3.1,0,6.1,0,9.2,0,0,12,.2,24,0,36-3,0-6.1.2-9.1-.2-.2-11.9,0-23.8,0-35.7Z"/>
    <path class="st0" d="M359,516.3c3.4,0,6.9,0,10.3,0,4.5,7.3,8.8,14.6,13.4,21.8,0-7.3-.2-14.6,0-21.9,3,0,5.9,0,8.9,0,0,12,.1,24,0,36-3.2,0-6.5.1-9.7-.1-1.2-.4-1.5-1.8-2.2-2.7-3.8-6.5-7.9-12.8-11.7-19.3-.3,7.4.1,14.8,0,22.2-2.8,0-5.7,0-8.5,0-.9-4.8-.3-9.6-.4-14.4.1-7.2-.2-14.4.2-21.7Z"/>
    <path class="st0" d="M485.6,516.3c8.1,0,16.2,0,24.3,0,0,2.6,0,5.3,0,7.9-5.1,0-10.2,0-15.3,0,0,1.9,0,3.8,0,5.7,4.9.4,9.8,0,14.7.3,0,2.4,0,4.9,0,7.3-4.9.1-9.8,0-14.6,0,0,2.2,0,4.4,0,6.6,5.4,0,10.8,0,16.2,0,0,2.6,0,5.3,0,8-8.4,0-16.7,0-25.1,0,0-12,0-24,0-36Z"/>
    <path class="st0" d="M517.7,516.2c5.8.2,11.6-.2,17.4.3,4.3.4,8.5,3.2,9.7,7.5,1.6,5.2-1.2,11.4-6.6,13,2.8,5.2,6.2,10,9,15.2-3.5,0-7,0-10.5.1-2.8-4.5-5-9.2-7.6-13.8-.6,0-1.8-.3-2.4-.4,0,4.7,0,9.4,0,14-3.1,0-6.2.3-9.2-.3.4-11.9,0-23.8.2-35.6ZM526.7,523.9c0,2.5,0,5,0,7.6,2.9.1,5.9-.2,8.7-1.2.2-1.7,1.1-3.9-.3-5.3-2.5-1.5-5.6-1.1-8.4-1.1Z"/>
    <path class="st0" d="M547.4,516.4c3.4,0,6.9,0,10.3,0,2.6,8.2,5.4,16.4,8,24.6,2.3-8.3,5.2-16.4,7.8-24.6,3.4,0,6.8,0,10.2,0-4.5,12-9.4,23.8-13.6,35.8-3.1,0-6.1,0-9.2,0-4.5-12-9-23.9-13.5-35.9Z"/>
    <path class="st0" d="M587.5,516.3c3.1,0,6.2,0,9.2,0,0,12,0,24,0,35.9-3.1,0-6.1,0-9.1,0,0-12,0-24,0-35.9Z"/>
    <path class="st0" d="M641.7,516.3c8.1,0,16.3,0,24.4,0,0,2.6,0,5.3-.3,7.9-5.1,0-10.1,0-15.2,0,0,1.9,0,3.9,0,5.9,4.9,0,9.8-.1,14.6.1,0,2.4,0,4.9,0,7.3-4.9,0-9.8,0-14.7,0,0,2.2,0,4.4,0,6.6,5.4,0,10.8,0,16.2,0,0,2.7,0,5.3-.1,8-8.4-.2-16.7,0-25.1,0,0-12,0-23.9,0-35.9Z"/>
  </g>
  <g>
    <path class="st2" d="M74.6,420.7c1.9-1.4,3.8-3.2,6.4-3,27,0,54,0,81,0,12.7.9,25.5.3,38.1,1.3,39.2,2.2,78.6,6.3,116.5,16.8,4.9,1.3,9.7,3.4,14.6,4.7-2,.4-4.1.9-6.2.9-81,0-162.1,0-243.1,0-2.8.3-5.4-1-7.4-2.8-1.3-5.8-1.5-12,0-17.8Z"/>
    <path class="st2" d="M569.1,419.3c13.9-1.7,28-.4,41.9-1.7,26,0,52,0,78,0,3.3-.2,6.4,1.2,8.5,3.7.3,5.4.3,10.8,0,16.2-1.9,2.1-4.4,4.3-7.5,3.9-77.7,0-155.3,0-233,0-6.3,0-12.6.2-18.9-.5,5.8-.9,11.1-3.5,16.7-5,30.4-8.5,61.8-12.6,93.2-15.3,7-.3,14-1.2,21-1.2Z"/>
    <path class="st2" d="M73.7,465.9c0-3.9,3.2-7.6,7.2-7.3,95.1,0,190.2,0,285.4,0,7.9,5.8,14.3,13.6,17.6,22.9-4.8,1.4-9.9.7-14.9.9-95.3,0-190.7,0-286,0-2.1,0-4.2-.5-6.2-.8-4.3-4.1-3-10.3-3.1-15.5Z"/>
    <path class="st2" d="M403.1,460.1c2.4-2.2,5.9-1.4,8.9-1.6,92.7,0,185.4,0,278,0,3.1-.3,6.2,1.5,7.4,4.4.6,5,.2,10.2.2,15.2-1,1.1-2,2.2-3.1,3.3-2.2.3-4.3.7-6.5.8-95,0-190,0-284.9,0-5,0-10.1.4-15.1-.6,2.2-8.7,8.5-15.8,15.2-21.5Z"/>
  </g>
</svg>